<?xml version="1.0" standalone="no"?><!DOCTYPE svg PUBLIC "-//W3C//DTD SVG 1.1//EN" "http://www.w3.org/Graphics/SVG/1.1/DTD/svg11.dtd"><svg t="1749113277320" class="icon" viewBox="0 0 1024 1024" version="1.1" xmlns="http://www.w3.org/2000/svg" p-id="5446" xmlns:xlink="http://www.w3.org/1999/xlink" width="200" height="200"><path d="M766.08 501.12L560.64 602.24s-48 25.6-104.32 0c-6.4-3.2-240.64-123.52-240.64-123.52-4.48-2.56-10.24 1.28-10.24 7.04v261.76c0 2.56 1.28 5.12 3.84 6.4L453.76 883.2h0.64c33.92 19.2 74.24 16 106.24 0l211.84-115.2c2.56-1.28 3.84-3.84 3.84-6.4V508.16c-0.64-5.76-5.76-8.96-10.24-7.04zM944 326.4L552.96 138.88c-29.44-14.08-63.36-14.08-92.8 0L77.44 326.4c-17.92 8.96-17.92 35.2 0 44.16l381.44 194.56c30.08 15.36 71.04 15.36 101.12 0.64l280.96-138.24v330.24c0 12.8 9.6 23.04 21.76 23.04s21.76-10.24 21.76-23.04V405.12l65.28-35.2c16.64-8.32 12.16-35.2-5.76-43.52z" fill="#FB95B0" p-id="5447"></path></svg>